<?xml version="1.0" encoding="utf-8"?>
<svg width="103" height="102" viewBox="0 0 103 102" fill="none" xmlns="http://www.w3.org/2000/svg">
  <rect x="0.293" y="0.665" width="101.901" height="100.925" rx="19.661" fill="black"/>
  <g transform="matrix(0.008705, 0, 0, -0.00712, 13.638651, 95.233597)" fill="#000000" stroke="none" style="">
    <path d="M 7292.371 12811.387 C 6953.645 12665.656 5961.031 11705.913 5379.798 10961.643 C 5337.58 10907.514 5254.125 10794.052 5194.235 10708.695 C 5134.344 10623.338 5082.308 10553.596 5079.363 10553.596 C 5076.417 10553.596 5032.236 10686.835 4982.163 10848.18 C 4750.455 11592.45 4571.765 11951.574 4374.42 12065.035 C 4272.312 12124.369 4122.094 12142.065 4004.277 12109.796 C 3730.351 12033.808 3429.916 11676.766 3257.117 11219.795 C 3108.863 10828.403 3025.409 10282.952 2962.573 9294.062 C 2929.191 8755.897 2898.755 7948.131 2898.755 7569.23 L 2898.755 7347.51 L 2788.792 7291.3 C 2645.447 7218.434 2514.866 7170.551 2344.03 7129.955 C 1920.868 7027.943 1797.16 6971.732 1597.852 6787.486 C 1447.634 6649.042 1246.362 6383.603 1161.926 6212.889 C 1070.618 6026.561 1034.291 5886.035 964.582 5442.596 C 900.764 5044.958 863.455 4884.654 780.983 4661.894 C 684.765 4403.741 575.784 4196.595 370.585 3886.396 C 157.531 3564.746 123.168 3486.676 133.968 3360.722 C 146.731 3203.542 160.476 3169.19 259.64 3030.746 C 415.748 2814.231 438.33 2767.389 538.475 2454.066 C 607.202 2236.511 640.583 2153.236 694.583 2064.756 C 777.055 1927.352 919.418 1803.481 1050.981 1755.598 C 1112.836 1732.697 1128.545 1731.657 1327.853 1733.738 C 1462.361 1735.82 1585.088 1731.657 1666.579 1721.247 C 1737.269 1713.96 1832.505 1707.715 1879.632 1708.757 C 1963.086 1710.839 1966.032 1709.797 1993.522 1679.61 C 2009.232 1662.955 2036.722 1608.826 2054.395 1559.902 C 2141.776 1322.568 2413.739 734.439 2520.756 551.235 C 2586.538 437.773 2695.519 288.918 2752.464 232.708 C 2776.028 209.808 2788.792 199.398 2781.919 209.808 C 2775.046 219.175 2771.119 227.503 2774.064 227.503 C 2776.028 227.503 2803.519 196.274 2834.937 157.76 C 2939.991 26.603 3146.172 -210.732 3151.081 -205.526 C 3154.026 -203.444 3095.117 -108.719 3021.481 2.66 C 2702.392 487.737 2512.902 833.327 2402.939 1126.873 C 2351.884 1265.316 2284.139 1530.755 2274.321 1635.89 C 2264.503 1741.025 2275.303 1749.353 2456.939 1774.335 C 2765.228 1817.013 3020.5 1888.838 3201.153 1985.645 C 3233.553 2003.34 3336.644 2072.043 3428.934 2137.622 C 3522.206 2204.243 3633.151 2277.107 3676.351 2300.008 C 3718.569 2322.909 3878.605 2385.365 4030.786 2438.453 C 4322.384 2540.464 4480.456 2612.289 4646.383 2720.546 C 5055.799 2984.944 5411.216 3359.682 5568.306 3691.74 C 5605.615 3770.852 5638.996 3858.29 5641.942 3886.396 C 5642.924 3897.846 5655.687 3946.77 5670.414 3996.735 C 5712.632 4137.261 5735.214 4262.174 5743.069 4383.963 C 5746.014 4445.378 5746.014 4495.344 5743.069 4495.344 C 5740.123 4495.344 5726.378 4458.911 5712.632 4415.192 C 5605.615 4056.068 5479.943 3805.203 5295.362 3582.441 C 5036.163 3269.121 4620.856 3009.927 4145.658 2866.278 C 4077.913 2845.459 3859.95 2794.453 3659.66 2751.774 C 3058.79 2624.78 2983.191 2593.552 2669.992 2343.728 C 2502.102 2210.488 2371.521 2135.54 2240.94 2099.108 C 2161.413 2077.248 2138.831 2076.207 1759.851 2075.166 C 1389.707 2075.166 1354.362 2073.084 1250.29 2051.224 C 1188.435 2038.733 1121.672 2028.323 1103.018 2028.323 C 1048.036 2029.365 990.109 2062.674 949.855 2117.845 C 909.6 2174.054 670.038 2676.827 670.038 2705.974 C 670.038 2725.751 688.692 2736.161 726.983 2736.161 C 773.128 2736.161 876.219 2653.927 1028.4 2495.704 C 1171.744 2346.85 1207.09 2319.786 1231.635 2337.482 C 1238.508 2341.646 1250.29 2345.81 1258.144 2345.81 C 1292.508 2345.81 1294.471 2379.119 1265.999 2520.687 C 1251.271 2596.675 1239.49 2671.622 1239.49 2687.237 C 1239.49 2761.143 1274.835 2806.944 1564.47 3110.898 C 1818.76 3377.377 1897.305 3468.98 1897.305 3498.126 C 1897.305 3503.331 1892.396 3504.371 1886.505 3501.249 C 1881.596 3497.086 1906.141 3532.478 1941.486 3579.32 C 1976.832 3626.161 2004.322 3669.881 2002.359 3676.127 C 1988.613 3717.764 1881.596 3640.735 1545.815 3348.231 C 1278.762 3115.062 1157.999 3020.337 1068.654 2974.535 C 999.927 2939.143 981.273 2933.939 920.4 2933.939 C 781.964 2933.939 665.129 2991.19 547.311 3116.102 C 486.439 3180.641 458.948 3219.155 426.548 3287.857 C 403.966 3336.781 382.366 3398.196 379.421 3424.219 C 372.548 3480.43 394.148 3544.968 494.293 3757.319 C 593.456 3969.671 651.383 4110.198 644.511 4122.688 C 640.583 4128.934 641.565 4131.016 647.456 4127.893 C 653.347 4123.729 661.201 4127.893 664.147 4137.261 C 667.092 4145.589 666.11 4149.753 660.22 4146.63 C 654.329 4143.507 653.347 4147.671 656.292 4155.998 C 659.238 4165.367 667.092 4169.531 672.983 4165.367 C 678.874 4162.244 679.856 4164.326 675.929 4170.571 C 668.074 4184.104 769.201 4402.7 780.001 4395.414 C 783.928 4392.291 784.91 4398.537 780.983 4407.905 C 776.074 4421.437 778.037 4423.518 787.855 4417.273 C 795.71 4412.069 798.655 4413.11 794.728 4420.397 C 786.874 4432.888 796.692 4466.197 806.51 4459.952 C 817.31 4452.665 971.455 4746.21 1080.436 4980.42 C 1297.417 5447.801 1351.416 5624.76 1416.216 6087.977 C 1463.343 6418.995 1554.652 6584.503 1745.124 6681.31 C 1850.178 6735.44 1936.577 6757.299 2221.303 6799.978 C 2597.338 6858.27 2660.174 6882.212 2884.027 7061.253 C 3157.953 7281.931 3293.444 7354.797 3669.478 7490.119 C 3949.295 7589.008 4167.258 7635.85 4301.766 7625.44 C 4470.638 7610.867 4566.856 7551.534 4837.837 7290.259 C 5059.726 7075.826 5132.381 7025.861 5217.798 7024.82 C 5297.325 7024.82 5341.507 7079.99 5368.016 7212.189 C 5393.543 7342.305 5402.379 7464.095 5417.107 7917.944 C 5432.816 8421.757 5442.634 8557.079 5476.997 8815.231 C 5545.724 9326.332 5721.469 9914.46 5957.104 10423.478 C 6116.158 10766.987 6312.521 11104.251 6545.21 11436.31 C 6666.955 11610.146 6691.501 11636.17 6728.81 11636.17 C 6781.827 11636.17 6780.846 11618.474 6702.301 11141.725 C 6447.029 9612.589 6268.339 8909.957 5902.122 8000.178 C 5683.178 7459.932 5665.505 7384.984 5666.487 7040.434 C 5667.469 6691.72 5684.16 6287.837 5700.851 6199.357 C 5734.232 6022.398 5816.705 5929.755 6001.286 5861.052 C 6166.23 5800.678 6414.629 5752.796 6752.373 5717.403 C 7078.335 5684.093 7416.079 5714.281 7602.624 5792.351 C 7651.714 5814.211 7661.532 5839.193 7618.333 5832.948 C 7600.66 5829.825 7618.333 5837.112 7655.642 5848.561 C 7693.932 5861.052 7793.095 5891.24 7876.55 5917.264 C 8072.912 5977.638 8369.42 6078.609 8365.493 6083.814 C 8363.529 6085.895 8338.002 6080.691 8308.548 6072.363 C 8213.312 6045.298 7925.64 5985.965 7758.732 5958.901 C 7404.297 5901.649 7073.426 5873.544 6865.282 5884.994 C 6384.193 5909.977 6128.921 6061.954 6019.94 6387.767 C 5982.631 6500.187 5967.904 6610.527 5974.777 6725.03 C 5981.649 6844.737 6030.74 6993.592 6118.121 7159.101 C 6276.193 7456.809 6462.738 7940.844 6655.174 8552.915 C 6896.7 9321.127 7014.517 9891.56 7204.007 11204.181 C 7303.17 11890.159 7326.734 12008.825 7425.897 12320.065 C 7474.006 12472.041 7496.588 12604.241 7491.679 12700.007 C 7488.733 12766.627 7484.806 12775.996 7456.333 12803.059 C 7417.061 12839.492 7365.025 12842.615 7292.371 12811.387 Z M 4140.749 11855.807 C 4301.766 11778.778 4374.42 11525.83 4641.474 10105.993 C 4656.201 10028.963 4675.837 9941.525 4685.655 9911.338 L 4702.346 9856.168 L 4664.056 9755.197 C 4505.984 9339.863 4456.893 9081.711 4425.475 8497.746 C 4417.62 8348.891 4403.875 8194.833 4396.02 8154.237 C 4365.584 8000.178 4298.821 7916.903 4165.294 7863.815 C 4129.949 7850.283 4010.168 7816.973 3899.223 7790.949 C 3600.751 7720.166 3467.225 7668.118 3195.262 7517.183 C 3106.899 7469.3 3033.263 7430.785 3032.281 7432.867 C 3027.372 7439.113 3046.027 9560.542 3050.936 9611.548 C 3053.881 9640.694 3062.718 9747.91 3071.554 9850.963 C 3099.045 10202.8 3159.917 10583.783 3227.662 10835.689 C 3266.935 10981.42 3318.971 11126.111 3330.753 11126.111 C 3335.662 11126.111 3336.644 11133.398 3333.698 11143.807 C 3328.789 11156.297 3330.753 11158.379 3340.571 11152.134 C 3350.389 11145.889 3352.353 11147.97 3346.462 11163.585 C 3342.534 11173.994 3342.534 11179.198 3346.462 11175.035 C 3350.389 11171.912 3375.916 11210.427 3403.407 11262.473 C 3563.442 11559.141 3775.514 11791.27 3941.441 11854.766 C 4008.204 11880.79 4089.695 11880.79 4140.749 11855.807 Z" style="fill: rgb(254, 251, 251);"/>
    <path d="M 3921.873 6334.313 C 3907.873 6332.313 3869.873 6325.313 3836.873 6319.313 C 3697.873 6294.313 3521.873 6200.313 3389.873 6081.313 C 3311.873 6010.313 3190.873 5864.313 3115.873 5750.313 C 3042.873 5638.313 3031.873 5607.313 3056.873 5580.313 C 3066.873 5569.313 3071.873 5560.313 3067.873 5560.313 C 3048.873 5560.313 3100.873 5477.313 3154.873 5422.313 C 3311.873 5261.313 3572.873 5144.313 3800.873 5133.313 C 3925.873 5126.313 3989.873 5138.313 4091.873 5188.313 C 4242.873 5262.313 4333.873 5385.313 4421.873 5635.313 C 4473.873 5782.313 4487.873 5806.313 4562.873 5872.313 C 4595.873 5900.313 4624.873 5935.313 4628.873 5949.313 C 4631.873 5963.313 4643.873 5981.313 4653.873 5988.313 C 4697.873 6020.313 4658.873 6071.313 4516.873 6169.313 C 4417.873 6238.313 4315.873 6287.313 4223.873 6311.313 C 4149.873 6330.313 3973.873 6343.313 3921.873 6334.313 Z" style="fill: rgb(249, 242, 242);"/>
  </g>
</svg>